
<svg
  width="32"
  height="32"
  viewBox="0 0 32 32"
  fill="none"
  xmlns="http://www.w3.org/2000/svg"
>
  <path
    d="M8 6C8 4.89543 8.89543 4 10 4H12C13.1046 4 14 4.89543 14 6V26C14 27.1046 13.1046 28 12 28H10C8.89543 28 8 27.1046 8 26V6Z"
    fill="#1A1F2C"
  />
  <path
    d="M18 6C18 4.89543 18.8954 4 20 4H22C23.1046 4 24 4.89543 24 6V26C24 27.1046 23.1046 28 22 28H20C18.8954 28 18 27.1046 18 26V6Z"
    fill="#1A1F2C"
  />
  <path
    d="M8 14H24"
    stroke="#1A1F2C"
    strokeWidth="4"
    strokeLinecap="round"
  />
  <circle
    cx="26"
    cy="8"
    r="3"
    fill="#9b87f5"
  />
  <path
    d="M25 7.5C25 7.5 25.5 8 26 8C26.5 8 27 7.5 27 7.5"
    stroke="#1A1F2C"
    strokeWidth="0.5"
    strokeLinecap="round"
  />
</svg>
