
<svg
  width="180"
  height="180"
  viewBox="0 0 180 180"
  fill="none"
  xmlns="http://www.w3.org/2000/svg"
>
  <path
    d="M45 30 
       C45 25 50 20 55 20
       H70 
       C75 20 80 25 80 30
       V150
       C80 155 75 160 70 160
       H55
       C50 160 45 155 45 150
       V30Z"
    fill="#1A1F2C"
  />
  <path
    d="M100 30
       C100 25 105 20 110 20
       H125
       C130 20 135 25 135 30
       V150
       C130 155 125 160 120 160
       H105
       C100 160 95 155 95 150
       V30Z"
    fill="#1A1F2C"
  />
  <!-- Noose rope -->
  <path
    d="M135 30
       C135 30 140 30 145 30
       S160 35 165 45
       S170 65 165 75
       S155 85 150 85
       S140 80 135 75"
    stroke="#1A1F2C"
    strokeWidth="10"
    fill="none"
    strokeLinecap="round"
  />
</svg>
