
<svg
  width="180"
  height="180"
  viewBox="0 0 180 180"
  fill="none"
  xmlns="http://www.w3.org/2000/svg"
>
  {/* Left vertical bar of H */}
  <path
    d="M20 20
       C20 20 40 20 40 40
       V140
       C40 160 20 160 20 160
       C20 160 40 160 40 140
       V40
       C40 20 20 20 20 20Z"
    fill="#1A1F2C"
  />
  
  {/* Right vertical bar of H */}
  <path
    d="M140 20
       C140 20 160 20 160 40
       V140
       C160 160 140 160 140 160
       C140 160 160 160 160 140
       V40
       C160 20 140 20 140 20Z"
    fill="#1A1F2C"
  />
  
  {/* Horizontal bar of H */}
  <path
    d="M40 80
       L160 80"
    stroke="#1A1F2C"
    strokeWidth="40"
    strokeLinecap="round"
  />
  
  {/* Noose rope */}
  <path
    d="M160 40
       C160 40 165 40 170 45
       C175 50 180 60 180 70
       C180 80 175 90 165 95
       C155 100 145 95 140 90
       C135 85 135 80 135 75"
    stroke="#1A1F2C"
    strokeWidth="8"
    fill="none"
    strokeLinecap="round"
  />
</svg>
